{
  "accessors": [
    {
      "bufferView": 2,
      "componentType": 5126,
      "count": 24854,
      "max": [
        427.9110107421875,
        87.93000030517578,
        -85.66099548339844
      ],
      "min": [
        -459.0570068359375,
        -262.9159851074219,
        -273.07598876953125
      ],
      "type": "VEC3"
    },
    {
      "bufferView": 2,
      "byteOffset": 298248,
      "componentType": 5126,
      "count": 24854,
      "max": [
        0.9997068047523499,
        0.9998459219932556,
        0.9999845027923584
      ],
      "min": [
        -0.9995018839836121,
        -0.9999294877052307,
        -0.9999982118606567
      ],
      "type": "VEC3"
    },
    {
      "bufferView": 1,
      "componentType": 5126,
      "count": 24854,
      "max": [
        0.9991199970245361,
        0.9999300241470337
      ],
      "min": [
        7.000000186963007e-05,
        9.999999747378752e-06
      ],
      "type": "VEC2"
    },
    {
      "bufferView": 0,
      "componentType": 5125,
      "count": 134469,
      "type": "SCALAR"
    }
  ],
  "asset": {
    "extras": {
      "author": "alban (https://sketchfab.com/alban)",
      "license": "CC-BY-4.0 (http://creativecommons.org/licenses/by/4.0/)",
      "source": "https://sketchfab.com/3d-models/bread-object-capture-1e439d130092410a9abb5c9822b39881",
      "title": "Bread object capture"
    },
    "generator": "Sketchfab-12.65.0",
    "version": "2.0"
  },
  "bufferViews": [
    {
      "buffer": 0,
      "byteLength": 537876,
      "name": "floatBufferViews",
      "target": 34963
    },
    {
      "buffer": 0,
      "byteLength": 198832,
      "byteOffset": 537876,
      "byteStride": 8,
      "name": "floatBufferViews",
      "target": 34962
    },
    {
      "buffer": 0,
      "byteLength": 596496,
      "byteOffset": 736708,
      "byteStride": 12,
      "name": "floatBufferViews",
      "target": 34962
    }
  ],
  "buffers": [
    {
      "byteLength": 1333204,
      "uri": "scene.bin"
    }
  ],
  "extensionsUsed": [
    "KHR_materials_unlit"
  ],
  "images": [
    {
      "uri": "textures/material_8a57e60a-696d-4392-a29b-50ac298f58d2_baseColor.jpeg"
    }
  ],
  "materials": [
    {
      "doubleSided": true,
      "extensions": {
        "KHR_materials_unlit": {}
      },
      "name": "material_8a57e60a-696d-4392-a29b-50ac298f58d2",
      "pbrMetallicRoughness": {
        "baseColorTexture": {
          "index": 0
        },
        "metallicFactor": 0.0
      }
    }
  ],
  "meshes": [
    {
      "name": "Object_0",
      "primitives": [
        {
          "attributes": {
            "NORMAL": 1,
            "POSITION": 0,
            "TEXCOORD_0": 2
          },
          "indices": 3,
          "material": 0,
          "mode": 4
        }
      ]
    }
  ],
  "nodes": [
    {
      "children": [
        1
      ],
      "matrix": [
        0.0005082112441312063,
        1.6096984284850622e-05,
        3.574248516014094e-21,
        0.0,
        0.0,
        1.1290215322600124e-19,
        -0.0005084660951979458,
        0.0,
        -1.6096984284850622e-05,
        0.0005082112441312063,
        1.1284556492157234e-19,
        0.0,
        -5.686239242553711,
        0.4031243622303009,
        8.951158974708238e-17,
        1.0
      ],
      "name": "Sketchfab_model"
    },
    {
      "children": [
        2
      ],
      "name": "breadv1.obj.cleaner.materialmerger.gles"
    },
    {
      "mesh": 0,
      "name": "Object_2"
    }
  ],
  "samplers": [
    {
      "magFilter": 9729,
      "minFilter": 9987,
      "wrapS": 10497,
      "wrapT": 10497
    }
  ],
  "scene": 0,
  "scenes": [
    {
      "name": "Sketchfab_Scene",
      "nodes": [
        0
      ]
    }
  ],
  "textures": [
    {
      "sampler": 0,
      "source": 0
    }
  ]
}
