{"accessors" : [{"bufferView" : 0, "byteOffset" : 0, "componentType" : 5123, "count" : 36, "type" : "SCALAR", "max" : [21], "min" : [0]}, {"bufferView" : 1, "byteOffset" : 0, "componentType" : 5126, "count" : 22, "type" : "VEC3", "max" : [0.9265272617340088, 0.9433891773223877, 0.6750726103782654], "min" : [-0.9001758098602295, -0.9433891773223877, -0.6750726103782654], "name" : "POSITION"}, {"bufferView" : 1, "byteOffset" : 12, "componentType" : 5126, "count" : 22, "type" : "VEC3", "max" : [1.0000044107437134, 0.9999611973762512, 0.000179926777491346], "min" : [0.009296963922679424, -0.9999611973762512, -0.000179926777491346], "name" : "NORMAL"}, {"bufferView" : 1, "byteOffset" : 24, "componentType" : 5126, "count" : 22, "type" : "VEC2", "max" : [0.5843840837478638, 0.7281253337860107], "min" : [0.41561591625213623, 0.021874666213989258], "name" : "TEXCOORD_0"}, {"bufferView" : 0, "byteOffset" : 72, "componentType" : 5123, "count" : 132, "type" : "SCALAR", "max" : [71], "min" : [0]}, {"bufferView" : 2, "byteOffset" : 0, "componentType" : 5126, "count" : 72, "type" : "VEC3", "max" : [1, 1, 1], "min" : [-1.111612319946289, -1, -1], "name" : "POSITION"}, {"bufferView" : 2, "byteOffset" : 12, "componentType" : 5126, "count" : 72, "type" : "VEC3", "max" : [1.0000044107437134, 1.0000044107437134, 1.0000044107437134], "min" : [-0.9985480904579163, -1.0000044107437134, -1.0000044107437134], "name" : "NORMAL"}, {"bufferView" : 2, "byteOffset" : 24, "componentType" : 5126, "count" : 72, "type" : "VEC2", "max" : [0.875, 1], "min" : [0.125, 0], "name" : "TEXCOORD_0"}, {"bufferView" : 0, "byteOffset" : 336, "componentType" : 5123, "count" : 60, "type" : "SCALAR", "max" : [39], "min" : [0]}, {"bufferView" : 3, "byteOffset" : 0, "componentType" : 5126, "count" : 40, "type" : "VEC3", "max" : [1, 1, 0.6750726103782654], "min" : [-0.9065282940864563, -1, -0.6750726103782654], "name" : "POSITION"}, {"bufferView" : 3, "byteOffset" : 12, "componentType" : 5126, "count" : 40, "type" : "VEC3", "max" : [0.9944764971733093, 0.09719784557819366, 1.0000044107437134], "min" : [-1.5529346697462643E-08, -0.09719784557819366, -1.0000044107437134], "name" : "NORMAL"}, {"bufferView" : 3, "byteOffset" : 24, "componentType" : 5126, "count" : 40, "type" : "VEC2", "max" : [0.5843840837478638, 0.7281253337860107], "min" : [0.41561591625213623, 0.021874666213989258], "name" : "TEXCOORD_0"}], "asset" : {"generator" : "Aspose.3D 24.6.0", "version" : "2.0"}, "buffers" : [{"uri" : "buffer.bin", "byteLength" : 4760}], "bufferViews" : [{"buffer" : 0, "byteOffset" : 0, "byteLength" : 456, "target" : 34963}, {"buffer" : 0, "byteOffset" : 460, "byteLength" : 704, "byteStride" : 32, "target" : 34962}, {"buffer" : 0, "byteOffset" : 1168, "byteLength" : 2304, "byteStride" : 32, "target" : 34962}, {"buffer" : 0, "byteOffset" : 3476, "byteLength" : 1280, "byteStride" : 32, "target" : 34962}], "materials" : [{"name" : "pagina", "pbrMetallicRoughness" : {"baseColorFactor" : [0.800000011920929, 0.800000011920929, 0.800000011920929, 1], "metallicFactor" : 1, "roughnessFactor" : 1}, "emissiveFactor" : [1, 1, 1], "alphaMode" : "OPAQUE", "doubleSided" : false}, {"name" : "capa", "pbrMetallicRoughness" : {"baseColorFactor" : [0, 0.014371475204825401, 0.1838265210390091, 1], "metallicFactor" : 1, "roughnessFactor" : 1}, "emissiveFactor" : [1, 1, 1], "alphaMode" : "OPAQUE", "doubleSided" : false}, {"name" : "interior", "pbrMetallicRoughness" : {"baseColorFactor" : [0.10878951847553253, 0.10878951847553253, 0.10878951847553253, 1], "metallicFactor" : 1, "roughnessFactor" : 1}, "emissiveFactor" : [1, 1, 1], "alphaMode" : "OPAQUE", "doubleSided" : false}], "meshes" : [{"primitives" : [{"attributes" : {"POSITION" : 1, "NORMAL" : 2, "TEXCOORD_0" : 3}, "indices" : 0, "material" : 0, "mode" : 4}, {"attributes" : {"POSITION" : 5, "NORMAL" : 6, "TEXCOORD_0" : 7}, "indices" : 4, "material" : 1, "mode" : 4}, {"attributes" : {"POSITION" : 9, "NORMAL" : 10, "TEXCOORD_0" : 11}, "indices" : 8, "material" : 2, "mode" : 4}], "name" : "Cube.001"}], "nodes" : [{"matrix" : [100, 0, 0, 0, 0, -2.5466133509090336E-05, -156.31001281738074, 0, 0, 29.06419944763145, -4.735159124661729E-06, 0, 0, 0, 0, 1], "mesh" : 0, "name" : "Cube"}], "scene" : 0, "scenes" : [{"nodes" : [0]}]}